<svg xmlns="http://www.w3.org/2000/svg" viewBox="0 0 400 280" width="400" height="280">
  <g fill="none" stroke-linecap="round" stroke-linejoin="round">
    <!-- pine tree (drawn first so the cloud outline can pass in front of it) -->
    <path d="M 262,68 L 302,178 L 222,178 Z"
          fill="#ffffff" stroke="#3d4a24" stroke-width="8"/>

    <!-- pine trunk / T shape -->
    <line x1="240" y1="180" x2="284" y2="180" stroke="#3d4a24" stroke-width="9"/>
    <line x1="262" y1="180" x2="262" y2="236" stroke="#3d4a24" stroke-width="9"/>

    <!-- K trunk (vertical stem of the K, continues below canopy) -->
    <line x1="176" y1="88" x2="176" y2="236" stroke="#6f8c3a" stroke-width="11"/>

    <!-- K diagonals -->
    <line x1="176" y1="150" x2="224" y2="103" stroke="#6f8c3a" stroke-width="11"/>
    <line x1="176" y1="150" x2="224" y2="193" stroke="#6f8c3a" stroke-width="11"/>

    <!-- circuit chip motif -->
    <rect x="116" y="130" width="38" height="38" stroke="#6f8c3a" stroke-width="5"/>
    <rect x="129" y="143" width="12" height="12" stroke="#6f8c3a" stroke-width="4"/>
    <line x1="135" y1="130" x2="135" y2="119" stroke="#6f8c3a" stroke-width="4"/>
    <line x1="135" y1="168" x2="135" y2="179" stroke="#6f8c3a" stroke-width="4"/>
    <line x1="116" y1="149" x2="105" y2="149" stroke="#6f8c3a" stroke-width="4"/>
    <line x1="154" y1="149" x2="165" y2="149" stroke="#6f8c3a" stroke-width="4"/>

    <!-- cloud canopy (drawn on top so its outline crosses in front of the pine) -->
    <path d="M 98,180
             C 55,180 50,126 92,114
             C 80,72 138,50 165,76
             C 172,36 232,34 240,76
             C 275,54 316,76 300,116
             C 330,122 330,172 292,178
             Z"
          fill="none" stroke="#6f8c3a" stroke-width="9"/>

    <!-- ground line -->
    <line x1="55" y1="236" x2="322" y2="236" stroke="#3a3a3a" stroke-width="4"/>
  </g>
</svg>
